<svg xmlns="http://www.w3.org/2000/svg" width="1200px" height="1200px" viewBox="0 0 1200 1200">
	<polygon fill="#29377D" points="1200,1200 0,1200 0,0 1200,0 1200,1200" />
	
	<path fill="#EDA640" d="M1188.8,403c-0.3,0-0.7,0.1-1.1,0.1l-2.1,0.1c-9.4,0.4-17.3-6.8-17.7-16.2c-0.4-9.4,6.8-17.3,16.2-17.7l1.9-0.1c9.4-0.5,17.3,6.8,17.8,16.2C1204.4,394.3,1197.8,402,1188.8,403L1188.8,403z M1116.4,402c-1.1,0.1-2.1,0.1-3.2,0l-2.1-0.2c-9.4-0.8-16.3-9-15.5-18.3c0.8-9.4,9-16.3,18.3-15.5l0,0l1.9,0.2c9.4,0.7,16.4,8.9,15.6,18.3C1130.8,394.5,1124.5,401.1,1116.4,402L1116.4,402z M1044.7,391.1c-1.9,0.2-3.8,0.1-5.6-0.3l-2-0.5c-9.2-2-14.9-11.1-12.9-20.3c2-9.2,11.1-14.9,20.3-12.9c0.1,0,0.2,0,0.3,0.1l1.9,0.4c9.2,2.1,14.9,11.2,12.8,20.3C1057.8,385.1,1051.9,390.3,1044.7,391.1L1044.7,391.1z M975.5,369.6c-2.8,0.3-5.6-0.1-8.2-1.1l-1.9-0.8c-8.7-3.5-12.9-13.5-9.3-22.2s13.5-12.9,22.2-9.3l0,0l1.8,0.7c8.7,3.5,12.9,13.4,9.4,22.1C987.1,364.8,981.7,368.9,975.5,369.6L975.5,369.6z M910.8,336.9c-3.8,0.4-7.6-0.4-10.8-2.4l-1.8-1.1c-8-5-10.4-15.4-5.5-23.4c5-8,15.4-10.4,23.4-5.4l1.6,1c8,4.9,10.5,15.4,5.5,23.4C920.7,333.4,916,336.4,910.8,336.9L910.8,336.9z M852.7,293.7c-4.8,0.5-9.5-1-13.1-4.2c-0.5-0.5-1-0.9-1.6-1.4c-7-6.3-7.6-17-1.3-24c6.3-7,17-7.6,24-1.3l0,0l1.4,1.3c7,6.2,7.7,17,1.4,24C860.8,291.2,856.9,293.2,852.7,293.7z M802.8,241.1c-5.8,0.6-11.5-1.7-15.1-6.3l-1.3-1.6c-6-7.3-4.9-18,2.4-23.9c7.3-6,18-4.9,23.9,2.4c0.1,0.1,0.2,0.3,0.4,0.5l1.2,1.5c5.9,7.3,4.7,18-2.7,23.9C809,239.5,806,240.8,802.8,241.1z M762.3,181c-6.8,0.7-13.4-2.6-16.7-8.6l-1-1.8c-4.6-8.2-1.6-18.6,6.6-23.1s18.6-1.6,23.1,6.6l0.9,1.7c4.6,8.2,1.7,18.6-6.5,23.1C766.8,180,764.6,180.7,762.3,181L762.3,181z M732,115.1c-7.7,0.8-15.1-3.7-17.8-11l-0.7-2c-3.2-8.8,1.3-18.6,10.1-21.8s18.6,1.3,21.8,10.1l0,0l0.7,1.8c3.3,8.8-1.3,18.6-10.1,21.9C734.7,114.6,733.4,114.9,732,115.1L732,115.1z M712.1,45.4c-8.7,0.9-16.7-4.9-18.5-13.5l-0.4-2c-1.9-9.2,4-18.2,13.2-20.1c9.2-1.9,18.2,4,20.1,13.2c0,0.1,0,0.2,0.1,0.3l0.4,1.9c1.9,9.2-4.1,18.2-13.3,20.1C713.2,45.2,712.6,45.3,712.1,45.4L712.1,45.4z M1172.7,272.6c-0.3,0-0.5,0-0.8,0l-2.1,0c-9.4,0.1-17.1-7.4-17.3-16.7c-0.1-9.3,7.3-17,16.6-17.2l1.9,0c9.4-0.2,17.2,7.2,17.4,16.6C1188.7,264.3,1181.8,272,1172.7,272.6L1172.7,272.6z M1100.4,268.1c-1.3,0.1-2.6,0-3.8-0.2c-0.7-0.1-1.4-0.2-2.1-0.3c-9.3-1.5-15.6-10.2-14.1-19.4c1.5-9.3,10.2-15.6,19.4-14.1c0.1,0,0.1,0,0.2,0l1.9,0.3c9.3,1.4,15.6,10.1,14.2,19.4C1114.8,261.6,1108.4,267.5,1100.4,268.1L1100.4,268.1z M1030.5,249.4c-2.5,0.2-5-0.2-7.3-1.1c-0.6-0.3-1.3-0.5-2-0.8c-8.8-3.3-13.2-13.2-9.8-21.9c3.3-8.8,13.2-13.2,21.9-9.8c0.1,0,0.3,0.1,0.4,0.2c0.6,0.2,1.2,0.5,1.8,0.7c8.8,3.4,13.1,13.2,9.7,22C1042.8,244.8,1037.1,249,1030.5,249.4L1030.5,249.4z M966.5,215.5c-3.9,0.3-7.7-0.8-10.9-3c-0.6-0.4-1.1-0.8-1.7-1.2c-7.7-5.4-9.5-16-4.1-23.7c5.4-7.7,16-9.5,23.7-4.1l0,0c0.5,0.4,1,0.7,1.6,1.1c7.7,5.4,9.6,15.9,4.3,23.7C976.4,212.5,971.7,215.2,966.5,215.5L966.5,215.5z M912.6,167.3c-5.3,0.4-10.5-1.7-14-5.7c-0.5-0.5-0.9-1.1-1.4-1.6c-6.1-7.1-5.4-17.8,1.7-24c7.1-6.1,17.8-5.4,24,1.7c0.4,0.5,0.8,0.9,1.2,1.4c6.2,7.1,5.5,17.8-1.6,24C919.8,165.6,916.3,167,912.6,167.3L912.6,167.3z M871.6,107.6c-6.7,0.5-13.1-3.1-16.2-9c-0.3-0.6-0.7-1.2-1-1.9c-4.3-8.3-1.1-18.6,7.2-22.9c8.3-4.3,18.6-1.1,22.9,7.2c0.3,0.6,0.6,1.1,0.9,1.7c4.4,8.3,1.2,18.6-7.1,23C876.2,106.8,873.9,107.4,871.6,107.6L871.6,107.6z M845,40.2c-8.1,0.6-15.4-4.7-17.6-12.5c-0.2-0.7-0.4-1.3-0.5-2c-2.4-9.1,3-18.4,12-20.8c9.1-2.4,18.4,3,20.8,12l0,0l0.5,1.8c2.5,9.1-2.9,18.4-12,20.9C847.2,40,846.1,40.1,845,40.2z M1173,138.7c-9.3,0.9-17.6-6-18.5-15.4c-0.9-9.3,6-17.6,15.3-18.5c0.6-0.1,1.2-0.1,1.8-0.2c9.3-1.1,17.8,5.6,18.9,14.9c1.1,9.3-5.6,17.8-14.9,18.9c0,0-0.1,0-0.1,0c-0.7,0.1-1.4,0.2-2.2,0.2L1173,138.7z M1103.1,132.6c-1.9,0.2-3.9,0-5.7-0.5c-0.7-0.2-1.4-0.4-2.1-0.6c-9-2.6-14.3-11.9-11.7-21c2.5-8.9,11.6-14.1,20.6-11.8c0.6,0.2,1.2,0.3,1.8,0.5c9.1,2.3,14.6,11.6,12.2,20.7C1116.3,126.9,1110.3,131.9,1103.1,132.6z M1038.2,101.2c-4.2,0.4-8.5-0.9-11.8-3.5c-0.6-0.4-1.2-0.9-1.7-1.3c-7.4-5.7-8.8-16.4-3.1-23.8c5.7-7.4,16.4-8.8,23.8-3.1c0.1,0.1,0.1,0.1,0.2,0.2c0.5,0.4,1,0.7,1.4,1.1c7.4,5.7,8.8,16.4,3.1,23.8C1047.3,98.4,1042.9,100.8,1038.2,101.2z M991.2,46.6c-6.7,0.6-13.1-2.8-16.3-8.6c-0.4-0.6-0.7-1.3-1.1-1.9c-4.6-8.2-1.7-18.5,6.5-23.2s18.5-1.7,23.2,6.5c0.1,0.1,0.2,0.3,0.2,0.4c0.3,0.5,0.6,1.1,0.9,1.6c4.6,8.2,1.6,18.6-6.6,23.1C995.9,45.7,993.6,46.4,991.2,46.6L991.2,46.6z" />
</svg>
