<svg xmlns="http://www.w3.org/2000/svg" xmlns:xlink="http://www.w3.org/1999/xlink" width="500" zoomAndPan="magnify" viewBox="0 0 375 374.999991" height="500" preserveAspectRatio="xMidYMid meet" version="1.0"><defs><g/></defs><rect x="-37.5" width="450" fill="#ffffff" y="-37.499999" height="449.999989" fill-opacity="1"/><rect x="-37.5" width="450" fill="#0d72ff" y="-37.499999" height="449.999989" fill-opacity="1"/><path fill="#ffffff" d="M 65.308594 202.835938 C 61.8125 206.417969 56.371094 201.113281 59.867188 197.523438 C 63.359375 193.941406 68.800781 199.253906 65.308594 202.835938 Z M 144.6875 197.964844 C 143.179688 205.066406 140.144531 211.917969 135.585938 217.988281 C 138.636719 221.519531 134.128906 226.578125 130.269531 224.015625 C 126.328125 227.84375 121.914062 230.914062 117.226562 233.226562 C 118.8125 239.773438 109.542969 243 106.636719 237.011719 C 103.023438 237.894531 99.296875 238.390625 95.507812 238.460938 C 93.550781 243.207031 86.523438 242.589844 85.378906 237.636719 C 80.320312 236.707031 75.199219 234.945312 70.730469 232.609375 C 66.363281 236.21875 59.992188 231.992188 61.726562 226.589844 C 56.15625 221.929688 51.683594 216.195312 48.523438 209.738281 C 42.796875 210.792969 39.839844 202.945312 44.921875 200 C 43.53125 194.617188 43.003906 188.960938 43.460938 183.234375 C 37.523438 181.402344 39.019531 172.203125 45.460938 172.578125 C 48.503906 162.378906 54.464844 153.816406 62.164062 147.550781 C 58.816406 141.015625 67.304688 134.515625 72.707031 139.78125 C 72.96875 140.035156 73.195312 140.308594 73.410156 140.59375 C 81.5625 136.894531 90.714844 135.308594 100.011719 136.328125 C 101.742188 131.785156 108.574219 133.125 108.476562 137.96875 C 110.933594 138.65625 113.351562 139.535156 115.699219 140.601562 C 118.027344 138.128906 122.039062 140.378906 121.285156 143.558594 C 122.617188 144.371094 123.929688 145.269531 125.210938 146.230469 C 128.253906 148.5 131.082031 151.152344 133.539062 154.019531 C 136.203125 153.003906 138.726562 156.203125 137.003906 158.550781 C 138.777344 161.164062 140.28125 163.90625 141.527344 166.742188 C 145.96875 166.085938 148.152344 172.203125 144.1875 174.457031 C 145.273438 178.683594 145.8125 183.027344 145.800781 187.375 C 151.898438 188.773438 150.941406 197.875 144.6875 197.964844 Z M 131.894531 158.023438 C 129.871094 158.277344 127.84375 158.628906 125.835938 159.050781 C 125.925781 159.980469 125.816406 160.929688 125.515625 161.820312 C 130.066406 163.59375 134.488281 165.832031 138.699219 168.523438 L 139.765625 167.457031 C 139.078125 165.902344 138.316406 164.375 137.484375 162.898438 C 136.859375 161.792969 136.183594 160.703125 135.46875 159.648438 C 134.097656 160.058594 132.503906 159.375 131.894531 158.023438 Z M 90.300781 180.875 C 96.273438 183.027344 102.046875 185.964844 107.46875 189.691406 C 107.691406 189.496094 107.9375 189.332031 108.183594 189.195312 C 106.117188 183.5 103.339844 178 99.835938 172.859375 C 98.757812 173.328125 97.484375 173.222656 96.488281 172.527344 C 94.136719 174.320312 91.878906 176.265625 89.714844 178.371094 C 90.183594 179.132812 90.378906 180.015625 90.300781 180.875 Z M 112.792969 158.113281 C 112.898438 157.652344 113.066406 157.191406 113.28125 156.761719 C 107.535156 153.101562 101.398438 150.3125 95.066406 148.394531 C 93.6875 150.242188 92.40625 152.140625 91.222656 154.070312 C 92.132812 154.707031 92.835938 155.636719 93.167969 156.789062 C 99.738281 156.390625 106.332031 156.828125 112.792969 158.113281 Z M 112.605469 159.953125 C 106.265625 158.667969 99.796875 158.230469 93.355469 158.628906 C 93.285156 159.492188 93.003906 160.332031 92.515625 161.085938 C 94.214844 162.808594 95.820312 164.589844 97.328125 166.429688 C 98.523438 166.019531 99.933594 166.273438 100.882812 167.234375 C 104.6875 164.835938 108.671875 162.800781 112.761719 161.136719 C 112.675781 160.753906 112.625 160.351562 112.605469 159.953125 Z M 83.3125 159.953125 C 71.402344 162.339844 59.984375 167.683594 50.214844 175.941406 C 50.449219 176.5 50.585938 177.097656 50.617188 177.695312 C 61.226562 175.71875 72.136719 175.992188 82.6875 178.585938 C 82.863281 178.253906 83.089844 177.941406 83.363281 177.664062 C 84.722656 176.277344 86.847656 176.070312 88.421875 177.070312 C 90.625 174.925781 92.925781 172.9375 95.3125 171.117188 C 94.785156 169.945312 94.941406 168.523438 95.8125 167.496094 C 94.382812 165.753906 92.855469 164.0625 91.242188 162.425781 C 88.5 164.414062 84.429688 163.132812 83.3125 159.953125 Z M 109.945312 188.636719 C 110.589844 188.566406 111.234375 188.644531 111.863281 188.851562 C 115.199219 181.628906 117.324219 173.984375 118.203125 166.234375 C 116.257812 165.929688 114.386719 164.640625 113.417969 162.859375 C 109.414062 164.484375 105.53125 166.46875 101.8125 168.828125 C 102.054688 169.796875 101.878906 170.84375 101.28125 171.695312 C 104.921875 177.03125 107.808594 182.726562 109.945312 188.636719 Z M 113.457031 189.792969 C 113.898438 190.191406 114.242188 190.664062 114.484375 191.160156 C 117.871094 189.691406 121.160156 187.972656 124.332031 185.984375 C 123.949219 179.269531 122.667969 172.617188 120.472656 166.195312 C 120.335938 166.226562 120.199219 166.246094 120.0625 166.265625 C 119.152344 174.339844 116.953125 182.292969 113.457031 189.792969 Z M 114.484375 195.144531 C 117.363281 197.660156 120.003906 200.351562 122.414062 203.179688 C 122.707031 203.050781 123.019531 202.984375 123.34375 202.964844 C 124.203125 198.042969 124.554688 193.058594 124.417969 188.097656 C 121.355469 189.957031 118.195312 191.582031 114.933594 192.972656 C 114.964844 193.714844 114.816406 194.460938 114.484375 195.144531 Z M 126.101562 184.847656 C 129.195312 182.785156 132.160156 180.472656 134.957031 177.898438 C 131.738281 173.132812 127.914062 168.652344 123.597656 164.6875 C 123.164062 165.058594 122.707031 165.375 122.214844 165.617188 C 124.339844 171.863281 125.640625 178.320312 126.101562 184.847656 Z M 136.320312 176.617188 C 137.296875 175.679688 138.257812 174.710938 139.1875 173.703125 C 138.335938 172.8125 137.847656 171.566406 138.03125 170.265625 C 133.941406 167.625 129.65625 165.421875 125.230469 163.679688 C 129.429688 167.605469 133.15625 171.980469 136.320312 176.617188 Z M 119.574219 145.730469 C 119.964844 148.199219 120.238281 150.671875 120.386719 153.148438 C 122.578125 153.53125 124.585938 155.15625 125.40625 157.261719 C 127.492188 156.820312 129.585938 156.457031 131.691406 156.195312 C 131.757812 155.851562 131.894531 155.507812 132.089844 155.203125 C 128.753906 151.269531 124.78125 147.875 120.375 145.164062 C 120.132812 145.398438 119.867188 145.59375 119.574219 145.730469 Z M 107.671875 140.417969 C 111.246094 144.519531 114.300781 148.902344 116.84375 153.503906 C 117.390625 153.285156 117.960938 153.148438 118.546875 153.089844 C 118.398438 150.730469 118.136719 148.394531 117.761719 146.054688 C 115.933594 145.859375 114.59375 144.058594 114.894531 142.257812 C 112.714844 141.269531 110.433594 140.4375 108.066406 139.761719 C 107.949219 139.988281 107.820312 140.210938 107.671875 140.417969 Z M 96.273438 146.835938 C 102.546875 148.804688 108.621094 151.601562 114.328125 155.234375 L 115.25 154.394531 C 112.773438 149.910156 109.796875 145.644531 106.332031 141.660156 C 104.640625 142.648438 102.613281 142.296875 101.261719 141.140625 Z M 74.300781 142.246094 C 74.4375 142.621094 74.535156 143 74.605469 143.390625 C 81.257812 143.480469 87.914062 144.441406 94.375 146.28125 L 100.117188 139.664062 C 99.902344 139.203125 99.777344 138.703125 99.738281 138.167969 C 91.074219 137.265625 82.324219 138.636719 74.300781 142.246094 Z M 74.066406 147.375 C 77.792969 149.351562 81.394531 151.652344 84.820312 154.292969 C 86.191406 153.121094 87.972656 152.847656 89.546875 153.285156 C 90.675781 151.4375 91.878906 149.625 93.179688 147.855469 C 87.121094 146.191406 80.898438 145.320312 74.664062 145.230469 C 74.59375 145.964844 74.390625 146.691406 74.066406 147.375 Z M 47.320312 173.015625 L 49.21875 174.378906 C 59.210938 165.980469 70.875 160.558594 83.019531 158.132812 C 83.039062 157.300781 83.253906 156.46875 83.667969 155.722656 C 80.289062 153.121094 76.738281 150.851562 73.046875 148.921875 C 70.484375 151.828125 65.953125 151.917969 63.269531 149.109375 C 55.726562 155.3125 50.011719 164.050781 47.320312 173.015625 Z M 83.011719 182.910156 C 82.453125 182.15625 82.1875 181.257812 82.207031 180.355469 C 71.746094 177.792969 60.902344 177.566406 50.390625 179.601562 C 49.695312 181.941406 47.535156 183.382812 45.292969 183.46875 C 44.871094 188.902344 45.363281 194.265625 46.664062 199.371094 C 52.328125 198.394531 55.246094 206.105469 50.253906 209.082031 C 53.230469 215.121094 57.410156 220.5 62.585938 224.90625 C 63.367188 223.839844 64.535156 223.035156 65.972656 222.742188 C 67.597656 208.484375 73.273438 194.585938 83.011719 182.910156 Z M 72.429688 226.375 C 86.652344 220.640625 99.375 210 107.613281 196.730469 C 105.902344 195.390625 105.414062 193.019531 106.332031 191.152344 C 101.078125 187.550781 95.488281 184.710938 89.703125 182.628906 C 88.597656 184.417969 86.230469 185.035156 84.410156 184.105469 C 74.976562 195.417969 69.457031 208.867188 67.820312 222.675781 C 69.867188 222.929688 71.738281 224.417969 72.429688 226.375 Z M 110.699219 197.679688 C 110.21875 197.707031 109.738281 197.667969 109.277344 197.542969 C 100.765625 211.332031 87.550781 222.34375 72.765625 228.222656 C 72.773438 229.328125 72.480469 230.328125 71.960938 231.167969 C 76.042969 233.265625 80.683594 234.859375 85.273438 235.738281 C 86.125 229.09375 96.125 229.90625 95.890625 236.609375 C 99.363281 236.511719 102.789062 236.054688 106.117188 235.25 C 105.792969 232.304688 107.871094 229.28125 111.167969 228.949219 C 113.230469 218.613281 113.066406 207.945312 110.699219 197.679688 Z M 113.359375 229.164062 C 117.371094 222.703125 120.289062 215.765625 122.128906 208.609375 C 120.621094 207.796875 120.113281 205.800781 121.003906 204.375 C 118.671875 201.632812 116.128906 199.039062 113.351562 196.613281 C 113.074219 196.847656 112.78125 197.042969 112.46875 197.210938 C 114.894531 207.671875 115.089844 218.554688 113.027344 229.085938 C 113.132812 229.09375 113.25 229.125 113.359375 229.164062 Z M 129.929688 217.515625 C 128.332031 214.523438 126.523438 211.605469 124.496094 208.816406 C 124.3125 208.875 124.125 208.925781 123.9375 208.945312 C 122.078125 216.265625 119.105469 223.371094 115.023438 229.984375 L 116.453125 231.492188 C 121.050781 229.210938 125.28125 226.226562 128.980469 222.636719 C 128.039062 220.972656 128.390625 218.78125 129.929688 217.515625 Z M 142.796875 197.648438 C 139.136719 196.339844 138.03125 191.367188 140.988281 188.65625 C 139.570312 185.523438 137.894531 182.441406 135.988281 179.464844 C 132.902344 182.265625 129.636719 184.769531 126.21875 186.980469 C 126.453125 192.464844 126.09375 197.972656 125.132812 203.414062 C 126.609375 204.324219 127.003906 206.359375 125.984375 207.738281 C 128.070312 210.617188 129.9375 213.613281 131.574219 216.703125 C 132.386719 216.507812 133.246094 216.578125 134.027344 216.890625 C 138.148438 211.398438 141.28125 204.648438 142.796875 197.648438 Z M 143.914062 187.285156 C 143.914062 183.085938 143.386719 178.96875 142.367188 174.992188 C 141.800781 175.023438 141.242188 174.933594 140.742188 174.738281 C 139.648438 175.933594 138.511719 177.078125 137.355469 178.183594 C 139.332031 181.246094 141.074219 184.417969 142.554688 187.65625 C 142.992188 187.472656 143.453125 187.34375 143.914062 187.285156 Z M 134.636719 201.222656 C 132.101562 200.515625 131.035156 204.382812 133.570312 205.085938 C 136.09375 205.792969 137.171875 201.925781 134.636719 201.222656 Z M 96.4375 198.894531 C 99.707031 199.410156 100.5 194.429688 97.230469 193.910156 C 93.960938 193.394531 93.167969 198.375 96.4375 198.894531 Z M 96.886719 219.894531 C 92.75 218.75 90.996094 225.0625 95.144531 226.207031 C 99.285156 227.351562 101.027344 221.039062 96.886719 219.894531 Z M 77.453125 166.195312 C 73.96875 165.226562 72.488281 170.550781 75.984375 171.519531 C 79.46875 172.476562 80.9375 167.15625 77.453125 166.195312 Z M 77.453125 166.195312 " fill-opacity="1" fill-rule="nonzero"/><g fill="#ffffff" fill-opacity="1"><g transform="translate(170.443059, 166.53794)"><g><path d="M 9.640625 -19.5625 C 11.078125 -19.5625 12.398438 -19.316406 13.609375 -18.828125 C 14.828125 -18.347656 15.875 -17.671875 16.75 -16.796875 C 17.632812 -15.921875 18.320312 -14.890625 18.8125 -13.703125 C 19.3125 -12.523438 19.5625 -11.226562 19.5625 -9.8125 C 19.5625 -8.394531 19.3125 -7.085938 18.8125 -5.890625 C 18.320312 -4.703125 17.632812 -3.664062 16.75 -2.78125 C 15.875 -1.894531 14.828125 -1.207031 13.609375 -0.71875 C 12.398438 -0.238281 11.078125 0 9.640625 0 L 2.234375 0 L 2.234375 -19.5625 Z M 9.53125 -3.9375 C 10.644531 -3.9375 11.628906 -4.1875 12.484375 -4.6875 C 13.347656 -5.195312 14.019531 -5.894531 14.5 -6.78125 C 14.988281 -7.664062 15.234375 -8.675781 15.234375 -9.8125 C 15.234375 -10.945312 14.988281 -11.953125 14.5 -12.828125 C 14.019531 -13.703125 13.347656 -14.382812 12.484375 -14.875 C 11.628906 -15.375 10.644531 -15.625 9.53125 -15.625 L 6.484375 -15.625 L 6.484375 -3.9375 Z M 9.53125 -3.9375 "/></g></g></g><g fill="#ffffff" fill-opacity="1"><g transform="translate(191.158137, 166.53794)"><g><path d="M 16.609375 -7.609375 C 16.609375 -7.210938 16.578125 -6.8125 16.515625 -6.40625 L 5.109375 -6.40625 C 5.273438 -5.375 5.6875 -4.582031 6.34375 -4.03125 C 7 -3.488281 7.820312 -3.21875 8.8125 -3.21875 C 9.519531 -3.21875 10.148438 -3.367188 10.703125 -3.671875 C 11.265625 -3.984375 11.691406 -4.410156 11.984375 -4.953125 L 16.296875 -4.953125 C 15.734375 -3.304688 14.78125 -2 13.4375 -1.03125 C 12.101562 -0.0625 10.5625 0.421875 8.8125 0.421875 C 7.3125 0.421875 5.96875 0.0703125 4.78125 -0.625 C 3.601562 -1.320312 2.675781 -2.269531 2 -3.46875 C 1.320312 -4.675781 0.984375 -6.035156 0.984375 -7.546875 C 0.984375 -9.054688 1.320312 -10.410156 2 -11.609375 C 2.675781 -12.816406 3.601562 -13.769531 4.78125 -14.46875 C 5.96875 -15.164062 7.3125 -15.515625 8.8125 -15.515625 C 10.351562 -15.515625 11.707031 -15.15625 12.875 -14.4375 C 14.050781 -13.71875 14.96875 -12.757812 15.625 -11.5625 C 16.28125 -10.375 16.609375 -9.054688 16.609375 -7.609375 Z M 8.8125 -12.046875 C 7.894531 -12.046875 7.125 -11.789062 6.5 -11.28125 C 5.875 -10.78125 5.453125 -10.085938 5.234375 -9.203125 L 12.515625 -9.203125 C 11.921875 -11.097656 10.6875 -12.046875 8.8125 -12.046875 Z M 8.8125 -12.046875 "/></g></g></g><g fill="#ffffff" fill-opacity="1"><g transform="translate(208.714231, 166.53794)"><g><path d="M 19.125 -15.453125 C 20.164062 -15.453125 21.085938 -15.195312 21.890625 -14.6875 C 22.691406 -14.175781 23.316406 -13.472656 23.765625 -12.578125 C 24.222656 -11.679688 24.453125 -10.644531 24.453125 -9.46875 L 24.453125 0 L 20.375 0 L 20.375 -8.8125 C 20.375 -10.851562 19.609375 -11.875 18.078125 -11.875 C 17.191406 -11.875 16.488281 -11.546875 15.96875 -10.890625 C 15.457031 -10.242188 15.203125 -9.332031 15.203125 -8.15625 L 15.203125 0 L 11.203125 0 L 11.203125 -8.8125 C 11.203125 -10.851562 10.46875 -11.875 9 -11.875 C 8.070312 -11.875 7.34375 -11.546875 6.8125 -10.890625 C 6.289062 -10.242188 6.03125 -9.332031 6.03125 -8.15625 L 6.03125 0 L 1.953125 0 L 1.953125 -15.09375 L 4.8125 -15.09375 L 5.5625 -13.21875 C 6.101562 -13.894531 6.769531 -14.4375 7.5625 -14.84375 C 8.351562 -15.25 9.195312 -15.453125 10.09375 -15.453125 C 11.039062 -15.453125 11.894531 -15.238281 12.65625 -14.8125 C 13.425781 -14.382812 14.023438 -13.789062 14.453125 -13.03125 C 14.972656 -13.769531 15.640625 -14.359375 16.453125 -14.796875 C 17.273438 -15.234375 18.164062 -15.453125 19.125 -15.453125 Z M 19.125 -15.453125 "/></g></g></g><g fill="#ffffff" fill-opacity="1"><g transform="translate(234.936551, 166.53794)"><g><path d="M 9.140625 0.421875 C 7.578125 0.421875 6.179688 0.0703125 4.953125 -0.625 C 3.722656 -1.320312 2.753906 -2.269531 2.046875 -3.46875 C 1.335938 -4.675781 0.984375 -6.035156 0.984375 -7.546875 C 0.984375 -9.078125 1.335938 -10.441406 2.046875 -11.640625 C 2.753906 -12.847656 3.722656 -13.796875 4.953125 -14.484375 C 6.179688 -15.171875 7.578125 -15.515625 9.140625 -15.515625 C 10.679688 -15.515625 12.066406 -15.171875 13.296875 -14.484375 C 14.535156 -13.796875 15.507812 -12.847656 16.21875 -11.640625 C 16.925781 -10.441406 17.28125 -9.078125 17.28125 -7.546875 C 17.28125 -6.035156 16.925781 -4.675781 16.21875 -3.46875 C 15.507812 -2.269531 14.535156 -1.320312 13.296875 -0.625 C 12.066406 0.0703125 10.679688 0.421875 9.140625 0.421875 Z M 9.140625 -3.40625 C 10.316406 -3.40625 11.273438 -3.785156 12.015625 -4.546875 C 12.765625 -5.316406 13.140625 -6.316406 13.140625 -7.546875 C 13.140625 -8.773438 12.765625 -9.769531 12.015625 -10.53125 C 11.273438 -11.300781 10.316406 -11.6875 9.140625 -11.6875 C 7.953125 -11.6875 6.984375 -11.300781 6.234375 -10.53125 C 5.484375 -9.769531 5.109375 -8.773438 5.109375 -7.546875 C 5.109375 -6.316406 5.484375 -5.316406 6.234375 -4.546875 C 6.984375 -3.785156 7.953125 -3.40625 9.140625 -3.40625 Z M 9.140625 -3.40625 "/></g></g></g><g fill="#ffffff" fill-opacity="1"><g transform="translate(170.443059, 194.845761)"><g><path d="M 11.203125 0.421875 C 9.773438 0.421875 8.441406 0.164062 7.203125 -0.34375 C 5.972656 -0.863281 4.898438 -1.582031 3.984375 -2.5 C 3.078125 -3.425781 2.375 -4.507812 1.875 -5.75 C 1.375 -6.988281 1.125 -8.320312 1.125 -9.75 C 1.125 -11.207031 1.375 -12.5625 1.875 -13.8125 C 2.375 -15.0625 3.078125 -16.144531 3.984375 -17.0625 C 4.898438 -17.988281 5.972656 -18.707031 7.203125 -19.21875 C 8.441406 -19.726562 9.773438 -19.984375 11.203125 -19.984375 C 12.785156 -19.984375 14.238281 -19.65625 15.5625 -19 C 16.882812 -18.351562 17.992188 -17.441406 18.890625 -16.265625 C 19.785156 -15.085938 20.382812 -13.726562 20.6875 -12.1875 L 16.4375 -12.1875 C 16.039062 -13.34375 15.375 -14.257812 14.4375 -14.9375 C 13.507812 -15.625 12.429688 -15.96875 11.203125 -15.96875 C 10.109375 -15.96875 9.125 -15.691406 8.25 -15.140625 C 7.375 -14.585938 6.675781 -13.84375 6.15625 -12.90625 C 5.644531 -11.976562 5.390625 -10.925781 5.390625 -9.75 C 5.390625 -8.582031 5.644531 -7.535156 6.15625 -6.609375 C 6.675781 -5.691406 7.375 -4.960938 8.25 -4.421875 C 9.125 -3.878906 10.109375 -3.609375 11.203125 -3.609375 C 12.492188 -3.609375 13.601562 -3.96875 14.53125 -4.6875 C 15.46875 -5.414062 16.113281 -6.40625 16.46875 -7.65625 L 20.734375 -7.65625 C 20.441406 -6.039062 19.851562 -4.625 18.96875 -3.40625 C 18.082031 -2.195312 16.972656 -1.253906 15.640625 -0.578125 C 14.304688 0.0859375 12.828125 0.421875 11.203125 0.421875 Z M 11.203125 0.421875 "/></g></g></g><g fill="#ffffff" fill-opacity="1"><g transform="translate(191.996802, 194.845761)"><g><path d="M 9.140625 0.421875 C 7.578125 0.421875 6.179688 0.0703125 4.953125 -0.625 C 3.722656 -1.320312 2.753906 -2.269531 2.046875 -3.46875 C 1.335938 -4.675781 0.984375 -6.035156 0.984375 -7.546875 C 0.984375 -9.078125 1.335938 -10.441406 2.046875 -11.640625 C 2.753906 -12.847656 3.722656 -13.796875 4.953125 -14.484375 C 6.179688 -15.171875 7.578125 -15.515625 9.140625 -15.515625 C 10.679688 -15.515625 12.066406 -15.171875 13.296875 -14.484375 C 14.535156 -13.796875 15.507812 -12.847656 16.21875 -11.640625 C 16.925781 -10.441406 17.28125 -9.078125 17.28125 -7.546875 C 17.28125 -6.035156 16.925781 -4.675781 16.21875 -3.46875 C 15.507812 -2.269531 14.535156 -1.320312 13.296875 -0.625 C 12.066406 0.0703125 10.679688 0.421875 9.140625 0.421875 Z M 9.140625 -3.40625 C 10.316406 -3.40625 11.273438 -3.785156 12.015625 -4.546875 C 12.765625 -5.316406 13.140625 -6.316406 13.140625 -7.546875 C 13.140625 -8.773438 12.765625 -9.769531 12.015625 -10.53125 C 11.273438 -11.300781 10.316406 -11.6875 9.140625 -11.6875 C 7.953125 -11.6875 6.984375 -11.300781 6.234375 -10.53125 C 5.484375 -9.769531 5.109375 -8.773438 5.109375 -7.546875 C 5.109375 -6.316406 5.484375 -5.316406 6.234375 -4.546875 C 6.984375 -3.785156 7.953125 -3.40625 9.140625 -3.40625 Z M 9.140625 -3.40625 "/></g></g></g><g fill="#ffffff" fill-opacity="1"><g transform="translate(210.251788, 194.845761)"><g><path d="M 19.125 -15.453125 C 20.164062 -15.453125 21.085938 -15.195312 21.890625 -14.6875 C 22.691406 -14.175781 23.316406 -13.472656 23.765625 -12.578125 C 24.222656 -11.679688 24.453125 -10.644531 24.453125 -9.46875 L 24.453125 0 L 20.375 0 L 20.375 -8.8125 C 20.375 -10.851562 19.609375 -11.875 18.078125 -11.875 C 17.191406 -11.875 16.488281 -11.546875 15.96875 -10.890625 C 15.457031 -10.242188 15.203125 -9.332031 15.203125 -8.15625 L 15.203125 0 L 11.203125 0 L 11.203125 -8.8125 C 11.203125 -10.851562 10.46875 -11.875 9 -11.875 C 8.070312 -11.875 7.34375 -11.546875 6.8125 -10.890625 C 6.289062 -10.242188 6.03125 -9.332031 6.03125 -8.15625 L 6.03125 0 L 1.953125 0 L 1.953125 -15.09375 L 4.8125 -15.09375 L 5.5625 -13.21875 C 6.101562 -13.894531 6.769531 -14.4375 7.5625 -14.84375 C 8.351562 -15.25 9.195312 -15.453125 10.09375 -15.453125 C 11.039062 -15.453125 11.894531 -15.238281 12.65625 -14.8125 C 13.425781 -14.382812 14.023438 -13.789062 14.453125 -13.03125 C 14.972656 -13.769531 15.640625 -14.359375 16.453125 -14.796875 C 17.273438 -15.234375 18.164062 -15.453125 19.125 -15.453125 Z M 19.125 -15.453125 "/></g></g></g><g fill="#ffffff" fill-opacity="1"><g transform="translate(236.474108, 194.845761)"><g><path d="M 10.203125 -15.515625 C 11.710938 -15.515625 13.0625 -15.171875 14.25 -14.484375 C 15.445312 -13.796875 16.390625 -12.847656 17.078125 -11.640625 C 17.765625 -10.441406 18.109375 -9.078125 18.109375 -7.546875 C 18.109375 -6.015625 17.765625 -4.648438 17.078125 -3.453125 C 16.390625 -2.253906 15.445312 -1.300781 14.25 -0.59375 C 13.0625 0.101562 11.710938 0.453125 10.203125 0.453125 C 9.421875 0.453125 8.675781 0.335938 7.96875 0.109375 C 7.257812 -0.109375 6.613281 -0.414062 6.03125 -0.8125 L 6.03125 5.453125 L 1.953125 5.453125 L 1.953125 -15.09375 L 4.671875 -15.09375 L 5.359375 -13.71875 C 5.992188 -14.28125 6.722656 -14.71875 7.546875 -15.03125 C 8.367188 -15.351562 9.253906 -15.515625 10.203125 -15.515625 Z M 9.875 -3.40625 C 10.65625 -3.40625 11.359375 -3.585938 11.984375 -3.953125 C 12.609375 -4.316406 13.097656 -4.8125 13.453125 -5.4375 C 13.804688 -6.0625 13.984375 -6.765625 13.984375 -7.546875 C 13.984375 -8.328125 13.804688 -9.03125 13.453125 -9.65625 C 13.097656 -10.28125 12.609375 -10.773438 11.984375 -11.140625 C 11.359375 -11.503906 10.65625 -11.6875 9.875 -11.6875 C 9.070312 -11.6875 8.363281 -11.503906 7.75 -11.140625 C 7.132812 -10.773438 6.648438 -10.28125 6.296875 -9.65625 C 5.941406 -9.03125 5.765625 -8.328125 5.765625 -7.546875 C 5.765625 -6.765625 5.941406 -6.0625 6.296875 -5.4375 C 6.648438 -4.8125 7.132812 -4.316406 7.75 -3.953125 C 8.363281 -3.585938 9.070312 -3.40625 9.875 -3.40625 Z M 9.875 -3.40625 "/></g></g></g><g fill="#ffffff" fill-opacity="1"><g transform="translate(255.539803, 194.845761)"><g><path d="M 14.28125 -15.125 L 17.328125 -15.125 L 17.328125 -0.03125 L 14.109375 -0.03125 L 13.78125 -1.375 C 13.125 -0.8125 12.378906 -0.367188 11.546875 -0.046875 C 10.722656 0.265625 9.835938 0.421875 8.890625 0.421875 C 7.378906 0.421875 6.023438 0.0703125 4.828125 -0.625 C 3.640625 -1.320312 2.703125 -2.269531 2.015625 -3.46875 C 1.328125 -4.675781 0.984375 -6.046875 0.984375 -7.578125 C 0.984375 -9.085938 1.328125 -10.441406 2.015625 -11.640625 C 2.703125 -12.847656 3.640625 -13.796875 4.828125 -14.484375 C 6.023438 -15.171875 7.378906 -15.515625 8.890625 -15.515625 C 9.859375 -15.515625 10.757812 -15.347656 11.59375 -15.015625 C 12.4375 -14.691406 13.1875 -14.242188 13.84375 -13.671875 Z M 9.21875 -3.4375 C 10.007812 -3.4375 10.710938 -3.613281 11.328125 -3.96875 C 11.953125 -4.320312 12.441406 -4.8125 12.796875 -5.4375 C 13.148438 -6.0625 13.328125 -6.773438 13.328125 -7.578125 C 13.328125 -8.359375 13.148438 -9.0625 12.796875 -9.6875 C 12.441406 -10.3125 11.953125 -10.804688 11.328125 -11.171875 C 10.710938 -11.535156 10.007812 -11.71875 9.21875 -11.71875 C 8.414062 -11.71875 7.707031 -11.535156 7.09375 -11.171875 C 6.476562 -10.804688 5.992188 -10.3125 5.640625 -9.6875 C 5.285156 -9.0625 5.109375 -8.359375 5.109375 -7.578125 C 5.109375 -6.773438 5.285156 -6.066406 5.640625 -5.453125 C 5.992188 -4.835938 6.476562 -4.347656 7.09375 -3.984375 C 7.707031 -3.617188 8.414062 -3.4375 9.21875 -3.4375 Z M 9.21875 -3.4375 "/></g></g></g><g fill="#ffffff" fill-opacity="1"><g transform="translate(274.829141, 194.845761)"><g><path d="M 10.5625 -15.453125 C 12.28125 -15.453125 13.632812 -14.878906 14.625 -13.734375 C 15.625 -12.585938 16.125 -11.054688 16.125 -9.140625 L 16.125 0 L 12.046875 0 L 12.046875 -8.5 C 12.046875 -10.75 11.171875 -11.875 9.421875 -11.875 C 8.378906 -11.875 7.550781 -11.519531 6.9375 -10.8125 C 6.332031 -10.101562 6.03125 -9.144531 6.03125 -7.9375 L 6.03125 0 L 1.953125 0 L 1.953125 -15.09375 L 4.75 -15.09375 L 5.5625 -13.21875 C 6.125 -13.90625 6.84375 -14.445312 7.71875 -14.84375 C 8.59375 -15.25 9.539062 -15.453125 10.5625 -15.453125 Z M 10.5625 -15.453125 "/></g></g></g><g fill="#ffffff" fill-opacity="1"><g transform="translate(292.748659, 194.845761)"><g><path d="M 12.390625 -15.09375 L 16.75 -15.09375 L 10.140625 -0.203125 C 9.546875 1.160156 8.941406 2.253906 8.328125 3.078125 C 7.710938 3.910156 7.015625 4.515625 6.234375 4.890625 C 5.453125 5.265625 4.492188 5.453125 3.359375 5.453125 L 1.671875 5.453125 L 1.671875 1.765625 L 3.109375 1.765625 C 3.753906 1.765625 4.269531 1.6875 4.65625 1.53125 C 5.039062 1.382812 5.363281 1.109375 5.625 0.703125 C 5.894531 0.304688 6.191406 -0.269531 6.515625 -1.03125 L 6.5625 -1.140625 L 0.171875 -15.09375 L 4.609375 -15.09375 L 8.640625 -5.8125 Z M 12.390625 -15.09375 "/></g></g></g><g fill="#ffffff" fill-opacity="1"><g transform="translate(170.443059, 223.153582)"><g><path d="M 2.234375 0 L 2.234375 -19.5625 L 6.484375 -19.5625 L 6.484375 0 Z M 2.234375 0 "/></g></g></g><g fill="#ffffff" fill-opacity="1"><g transform="translate(179.165197, 223.153582)"><g><path d="M 19.125 -15.453125 C 20.164062 -15.453125 21.085938 -15.195312 21.890625 -14.6875 C 22.691406 -14.175781 23.316406 -13.472656 23.765625 -12.578125 C 24.222656 -11.679688 24.453125 -10.644531 24.453125 -9.46875 L 24.453125 0 L 20.375 0 L 20.375 -8.8125 C 20.375 -10.851562 19.609375 -11.875 18.078125 -11.875 C 17.191406 -11.875 16.488281 -11.546875 15.96875 -10.890625 C 15.457031 -10.242188 15.203125 -9.332031 15.203125 -8.15625 L 15.203125 0 L 11.203125 0 L 11.203125 -8.8125 C 11.203125 -10.851562 10.46875 -11.875 9 -11.875 C 8.070312 -11.875 7.34375 -11.546875 6.8125 -10.890625 C 6.289062 -10.242188 6.03125 -9.332031 6.03125 -8.15625 L 6.03125 0 L 1.953125 0 L 1.953125 -15.09375 L 4.8125 -15.09375 L 5.5625 -13.21875 C 6.101562 -13.894531 6.769531 -14.4375 7.5625 -14.84375 C 8.351562 -15.25 9.195312 -15.453125 10.09375 -15.453125 C 11.039062 -15.453125 11.894531 -15.238281 12.65625 -14.8125 C 13.425781 -14.382812 14.023438 -13.789062 14.453125 -13.03125 C 14.972656 -13.769531 15.640625 -14.359375 16.453125 -14.796875 C 17.273438 -15.234375 18.164062 -15.453125 19.125 -15.453125 Z M 19.125 -15.453125 "/></g></g></g><g fill="#ffffff" fill-opacity="1"><g transform="translate(205.387517, 223.153582)"><g><path d="M 14.28125 -15.125 L 17.328125 -15.125 L 17.328125 -0.03125 L 14.109375 -0.03125 L 13.78125 -1.375 C 13.125 -0.8125 12.378906 -0.367188 11.546875 -0.046875 C 10.722656 0.265625 9.835938 0.421875 8.890625 0.421875 C 7.378906 0.421875 6.023438 0.0703125 4.828125 -0.625 C 3.640625 -1.320312 2.703125 -2.269531 2.015625 -3.46875 C 1.328125 -4.675781 0.984375 -6.046875 0.984375 -7.578125 C 0.984375 -9.085938 1.328125 -10.441406 2.015625 -11.640625 C 2.703125 -12.847656 3.640625 -13.796875 4.828125 -14.484375 C 6.023438 -15.171875 7.378906 -15.515625 8.890625 -15.515625 C 9.859375 -15.515625 10.757812 -15.347656 11.59375 -15.015625 C 12.4375 -14.691406 13.1875 -14.242188 13.84375 -13.671875 Z M 9.21875 -3.4375 C 10.007812 -3.4375 10.710938 -3.613281 11.328125 -3.96875 C 11.953125 -4.320312 12.441406 -4.8125 12.796875 -5.4375 C 13.148438 -6.0625 13.328125 -6.773438 13.328125 -7.578125 C 13.328125 -8.359375 13.148438 -9.0625 12.796875 -9.6875 C 12.441406 -10.3125 11.953125 -10.804688 11.328125 -11.171875 C 10.710938 -11.535156 10.007812 -11.71875 9.21875 -11.71875 C 8.414062 -11.71875 7.707031 -11.535156 7.09375 -11.171875 C 6.476562 -10.804688 5.992188 -10.3125 5.640625 -9.6875 C 5.285156 -9.0625 5.109375 -8.359375 5.109375 -7.578125 C 5.109375 -6.773438 5.285156 -6.066406 5.640625 -5.453125 C 5.992188 -4.835938 6.476562 -4.347656 7.09375 -3.984375 C 7.707031 -3.617188 8.414062 -3.4375 9.21875 -3.4375 Z M 9.21875 -3.4375 "/></g></g></g><g fill="#ffffff" fill-opacity="1"><g transform="translate(224.676855, 223.153582)"><g><path d="M 14.140625 -15.09375 L 16.796875 -15.09375 L 16.796875 -1.765625 C 16.796875 -0.179688 16.484375 1.175781 15.859375 2.3125 C 15.234375 3.457031 14.34375 4.335938 13.1875 4.953125 C 12.03125 5.566406 10.660156 5.875 9.078125 5.875 C 7.035156 5.875 5.328125 5.378906 3.953125 4.390625 C 2.585938 3.398438 1.734375 2.046875 1.390625 0.328125 L 5.453125 0.328125 C 5.671875 1.003906 6.128906 1.515625 6.828125 1.859375 C 7.523438 2.203125 8.25 2.375 9 2.375 C 10.039062 2.375 10.929688 2.0625 11.671875 1.4375 C 12.410156 0.8125 12.78125 -0.0546875 12.78125 -1.171875 L 12.78125 -1.734375 C 12.175781 -1.304688 11.507812 -0.972656 10.78125 -0.734375 C 10.0625 -0.503906 9.289062 -0.390625 8.46875 -0.390625 C 7.070312 -0.390625 5.804688 -0.722656 4.671875 -1.390625 C 3.535156 -2.066406 2.632812 -2.972656 1.96875 -4.109375 C 1.3125 -5.242188 0.984375 -6.519531 0.984375 -7.9375 C 0.984375 -9.351562 1.3125 -10.632812 1.96875 -11.78125 C 2.632812 -12.925781 3.535156 -13.832031 4.671875 -14.5 C 5.804688 -15.175781 7.070312 -15.515625 8.46875 -15.515625 C 9.457031 -15.515625 10.378906 -15.34375 11.234375 -15 C 12.085938 -14.664062 12.84375 -14.191406 13.5 -13.578125 Z M 8.9375 -4.03125 C 10.0625 -4.03125 10.984375 -4.394531 11.703125 -5.125 C 12.429688 -5.863281 12.796875 -6.800781 12.796875 -7.9375 C 12.796875 -9.050781 12.4375 -9.976562 11.71875 -10.71875 C 11.007812 -11.457031 10.082031 -11.828125 8.9375 -11.828125 C 7.84375 -11.828125 6.929688 -11.457031 6.203125 -10.71875 C 5.472656 -9.976562 5.109375 -9.050781 5.109375 -7.9375 C 5.109375 -6.800781 5.46875 -5.863281 6.1875 -5.125 C 6.90625 -4.394531 7.820312 -4.03125 8.9375 -4.03125 Z M 8.9375 -4.03125 "/></g></g></g><g fill="#ffffff" fill-opacity="1"><g transform="translate(243.435039, 223.153582)"><g><path d="M 16.609375 -7.609375 C 16.609375 -7.210938 16.578125 -6.8125 16.515625 -6.40625 L 5.109375 -6.40625 C 5.273438 -5.375 5.6875 -4.582031 6.34375 -4.03125 C 7 -3.488281 7.820312 -3.21875 8.8125 -3.21875 C 9.519531 -3.21875 10.148438 -3.367188 10.703125 -3.671875 C 11.265625 -3.984375 11.691406 -4.410156 11.984375 -4.953125 L 16.296875 -4.953125 C 15.734375 -3.304688 14.78125 -2 13.4375 -1.03125 C 12.101562 -0.0625 10.5625 0.421875 8.8125 0.421875 C 7.3125 0.421875 5.96875 0.0703125 4.78125 -0.625 C 3.601562 -1.320312 2.675781 -2.269531 2 -3.46875 C 1.320312 -4.675781 0.984375 -6.035156 0.984375 -7.546875 C 0.984375 -9.054688 1.320312 -10.410156 2 -11.609375 C 2.675781 -12.816406 3.601562 -13.769531 4.78125 -14.46875 C 5.96875 -15.164062 7.3125 -15.515625 8.8125 -15.515625 C 10.351562 -15.515625 11.707031 -15.15625 12.875 -14.4375 C 14.050781 -13.71875 14.96875 -12.757812 15.625 -11.5625 C 16.28125 -10.375 16.609375 -9.054688 16.609375 -7.609375 Z M 8.8125 -12.046875 C 7.894531 -12.046875 7.125 -11.789062 6.5 -11.28125 C 5.875 -10.78125 5.453125 -10.085938 5.234375 -9.203125 L 12.515625 -9.203125 C 11.921875 -11.097656 10.6875 -12.046875 8.8125 -12.046875 Z M 8.8125 -12.046875 "/></g></g></g><path stroke-linecap="butt" transform="matrix(0.000000001309, -0.75, 0.75, 0.000000001309, 161.068266, 232.330062)" fill="none" stroke-linejoin="miter" d="M 0.00258313 1.497521 L 119.549466 1.49752 " stroke="#ffffff" stroke-width="3" stroke-opacity="1" stroke-miterlimit="4"/></svg>